# xmcd
#
# Track frame offsets: 
#        150
#        24300
#        37384
#        53217
#        74141
#        98309
#        115991
#        135190
#        156583
#        169934
#
# Disc length: 2448 seconds
#
# Revision: 0
# Processed by: cddbd v1.5.2PL0 Copyright (c) Steve Scherf et al.
# Submitted via: ExactAudioCopy v0.99pb3
#
DISCID=89098e0a
DTITLE=INOX - Almad'Blues
DYEAR=2006
DGENRE=Pop/Rock
TTITLE0=Que será será
TTITLE1=Bêbedo demais
TTITLE2=Lisboa LX
TTITLE3=Sempre viste
TTITLE4=Hora incerta
TTITLE5=Sombras de neve
TTITLE6=Sentimento
TTITLE7=2 por 3
TTITLE8=Arte projecto
TTITLE9=Crossroads
EXTD=
EXTT0=
EXTT1=
EXTT2=
EXTT3=
EXTT4=
EXTT5=
EXTT6=
EXTT7=
EXTT8=
EXTT9=
PLAYORDER=
